<svg xmlns="http://www.w3.org/2000/svg"  viewBox="0 0 64 64" width="64px" height="64px"><linearGradient id="3OVjuZbtd~dfNN86KI2j9a" x1="31.999" x2="31.999" y1="-523.75" y2="-487" gradientTransform="matrix(-1 0 0 1 63.998 538)" gradientUnits="userSpaceOnUse" spreadMethod="reflect"><stop offset="0" stop-color="#1a6dff"/><stop offset="1" stop-color="#c822ff"/></linearGradient><path fill="url(#3OVjuZbtd~dfNN86KI2j9a)" d="M25.1,48.4L8,36c-1.4-1-2.2-2.7-2-4.4c0.1-1.5,1-2.8,2.2-3.7l16.9-12.3c0.9-0.7,2.2-0.8,3.2-0.2 c1,0.5,1.6,1.5,1.6,2.6v6c0,0,0.4,0,1,0h24c1.7,0,3,1.3,3,3v10c0,1.7-1.4,3-3,3H31c-0.5,0-1,0-1,0v6c0,1.1-0.6,2.1-1.6,2.6 c-0.5,0.2-0.9,0.3-1.4,0.3C26.3,49,25.7,48.8,25.1,48.4z M31,26c-1.6,0-3,0-3,0v-8c0-0.5-0.4-0.8-0.6-0.9c-0.4-0.2-0.8-0.2-1.2,0.1 L9.2,29.6c-0.9,0.6-1.3,1.7-1.2,2.8c0.1,0.8,0.6,1.6,1.3,2.1l17,12.3c0.3,0.2,0.8,0.3,1.2,0.1c0.2-0.1,0.6-0.3,0.6-0.9v-8 c0,0,1.3,0,3,0h24c0.6,0,1-0.5,1-1V27c0-0.5-0.5-1-1-1H31z"/><linearGradient id="3OVjuZbtd~dfNN86KI2j9b" x1="32.002" x2="32.002" y1="-515.435" y2="-496.814" gradientTransform="matrix(-1 0 0 1 63.998 538)" gradientUnits="userSpaceOnUse" spreadMethod="reflect"><stop offset="0" stop-color="#6dc7ff"/><stop offset="1" stop-color="#e6abff"/></linearGradient><path fill="url(#3OVjuZbtd~dfNN86KI2j9b)" d="M12.8,33.6l10.6,7.2c0.7,0.5,1.6,0,1.6-0.8v-6h26c0.6,0,1-0.4,1-1v-2c0-0.6-0.5-1-1-1H25v-6 c0-0.8-0.9-1.3-1.6-0.8l-10.6,7.2C11.7,31.2,11.7,32.8,12.8,33.6z"/></svg>